# Wavefront OBJ exported by MilkShape 3D

v 0.000000 20.000000 10.000000
v 0.000000 0.000000 10.000000
v 20.000000 20.000000 10.000000
v 20.000000 0.000000 10.000000
v 20.000000 20.000000 -10.000000
v 20.000000 0.000000 -10.000000
v 0.000000 20.000000 -10.000000
v 0.000000 0.000000 -10.000000
# 8 vertices

vt 1.000000 1.000000
vt 0.000000 0.000000
vt 0.000000 1.000000
vt 1.000000 0.000000
# 4 texture coordinates

vn 0.000000 0.000000 -1.000000
vn -1.000000 0.000000 0.000000
vn 0.000000 0.000000 1.000000
vn 1.000000 0.000000 0.000000
vn 0.000000 -1.000000 0.000000
vn 0.000000 1.000000 0.000000
# 6 normals

g Box01
s 1
f 3/1/1 2/2/1 1/3/1
f 3/1/1 4/4/1 2/2/1
s 2
f 5/1/2 4/2/2 3/3/2
f 5/1/2 6/4/2 4/2/2
s 1
f 7/1/3 6/2/3 5/3/3
f 7/1/3 8/4/3 6/2/3
s 2
f 1/1/4 8/2/4 7/3/4
f 1/1/4 2/4/4 8/2/4
s 3
f 5/1/5 1/2/5 7/3/5
f 5/1/5 3/4/5 1/2/5
f 4/1/6 8/2/6 2/3/6
f 4/1/6 6/4/6 8/2/6
# 12 triangles in group

# 12 triangles total

