# Wavefront OBJ exported by MilkShape 3D

mtllib testbild.mtl

v -68.000000 38.624073 3.020990
v -68.000000 -38.766636 3.020990
v 68.000000 38.624073 3.020990
v 68.000000 -38.766636 3.020990
v 74.800003 42.493557 -0.712565
v 74.800003 -42.636196 -0.712565
v 74.800003 42.493557 -3.287435
v 74.800003 -42.636196 -3.287435
v -74.800003 42.493557 -3.287435
v -74.800003 -42.636196 -3.287435
v -74.800003 42.493557 -0.712565
v -74.800003 -42.636196 -0.712565
v 68.000000 38.624073 -3.020988
v 68.000000 -38.766636 -3.020988
v -68.000000 38.624073 -3.020988
v -68.000000 -38.766636 -3.020988
v 74.800003 42.493557 -3.287435
v 74.800003 -42.636196 -3.287435
v -74.800003 42.493557 -3.287435
v -74.800003 -42.636196 -3.287435
v 45.094307 36.447048 -3.388892
v -32.179768 15.741524 -3.388886
v 60.179768 -19.852638 -3.388892
v -17.094307 -40.558163 -3.388886
# 24 vertices

vt 0.000000 1.000000
vt 0.000000 0.000000
vt 1.000000 1.000000
vt 1.000000 0.000000
vt 0.749085 0.956710
vt 0.749085 0.953443
vt 0.744589 0.956710
vt 0.744589 0.953443
# 8 texture coordinates

vn 0.000000 0.000000 1.000000
vn 1.000000 0.000000 0.000000
vn -1.000000 0.000000 0.000000
vn 0.000000 1.000000 0.000000
vn -0.215235 0.894427 0.392013
vn 0.430470 0.447214 0.784025
vn -0.430470 -0.447214 0.784025
vn 0.000000 -1.000000 0.000000
vn 0.215235 -0.894427 0.392013
vn 0.481281 0.000000 0.876567
vn -0.481281 0.000000 0.876567
vn 0.000000 0.694354 0.719634
vn 0.000000 -0.694347 0.719640
vn 0.000000 0.000000 -1.000000
vn -0.039153 0.000000 -0.999233
vn 0.039153 0.000000 -0.999233
vn 0.000000 -0.068696 -0.997638
vn 0.000000 0.068694 -0.997638
# 18 normals

g Box01
usemtl Material01
s 1
f 1/1/1 2/2/1 3/3/1
f 2/2/1 4/4/1 3/3/1
s 2
f 5/5/2 6/6/2 7/7/2
f 6/6/2 8/8/2 7/7/2
f 9/7/3 10/8/3 11/5/3
f 10/8/3 12/6/3 11/5/3
s 3
f 9/7/4 11/5/5 7/7/4
f 11/5/5 5/5/6 7/7/4
f 12/6/7 10/8/8 6/6/9
f 10/8/8 8/8/8 6/6/9
f 5/1/6 3/1/10 4/1/10
f 5/1/6 4/1/10 6/1/9
f 12/1/7 2/1/11 1/1/11
f 12/1/7 1/1/11 11/1/5
s 4
f 11/1/12 1/1/12 3/1/12
f 11/1/12 3/1/12 5/1/12
f 6/1/13 4/1/13 2/1/13
f 6/1/13 2/1/13 12/1/13
# 18 triangles in group

g backside
usemtl Material02
s 1
f 13/1/14 14/2/14 15/3/14
f 14/2/14 16/4/14 15/3/14
s 3
f 18/1/15 14/1/15 13/1/15
f 18/1/15 13/1/15 17/1/15
f 19/1/16 15/1/16 16/1/16
f 19/1/16 16/1/16 20/1/16
s 4
f 17/1/17 13/1/17 15/1/17
f 17/1/17 15/1/17 19/1/17
f 20/1/18 16/1/18 14/1/18
f 20/1/18 14/1/18 18/1/18
# 10 triangles in group

g Plane01
usemtl Material03
s 1
f 21/1/14 23/2/14 24/4/14
f 21/1/14 24/4/14 22/3/14
# 2 triangles in group

# 30 triangles total

